<svg width="42" height="44" viewBox="0 0 42 44" fill="none" xmlns="http://www.w3.org/2000/svg">
<path d="M41.016 2.808C40.632 3.40533 40.0773 3.85333 39.352 4.152C38.6693 4.45066 37.944 4.728 37.176 4.984C36.4507 5.24 35.8107 5.60267 35.256 6.072C35.256 7.48 35.256 8.84533 35.256 10.168C35.256 11.448 35.2347 12.728 35.192 14.008C35.1493 15.7573 35.1067 17.5067 35.064 19.256C35.064 20.9627 35.064 22.776 35.064 24.696C35.064 25.08 35.0853 25.4853 35.128 25.912C35.1707 26.296 35.2133 26.7227 35.256 27.192C35.3413 27.832 35.4053 28.5147 35.448 29.24C35.5333 29.9227 35.5333 30.6053 35.448 31.288C35.3627 32.0987 35.1493 32.8667 34.808 33.592C34.4667 34.3173 34.1253 35.0427 33.784 35.768C33.3573 36.6213 32.888 37.56 32.376 38.584C31.9067 39.5653 31.4373 40.2907 30.968 40.76C30.4133 41.3573 29.5387 41.8907 28.344 42.36C27.192 42.8293 25.976 43.192 24.696 43.448C23.416 43.704 22.328 43.832 21.432 43.832C16.5253 43.832 12.6213 42.4667 9.72 39.736C6.81867 36.9627 5.19733 33.1227 4.856 28.216C4.68533 25.9547 4.62133 23.6293 4.664 21.24C4.70667 18.808 4.74933 16.376 4.792 13.944C4.87733 12.3227 4.94133 10.7013 4.984 9.08C5.02667 7.416 5.048 5.79467 5.048 4.216C4.49333 4.216 3.72533 4.17333 2.744 4.088C1.76267 3.96 0.952 3.74667 0.312 3.448C0.141334 3.02133 0.162667 2.57333 0.376 2.104C0.589334 1.63466 0.909334 1.25067 1.336 0.952C2.01867 1.08 2.78667 1.144 3.64 1.144C4.536 1.144 5.47467 1.144 6.456 1.144C6.968 1.10133 7.48 1.08 7.992 1.08C8.54667 1.08 9.08 1.08 9.592 1.08C11.0853 1.12266 12.3867 1.336 13.496 1.72C14.648 2.06133 15.2667 2.82933 15.352 4.024C13.944 4.57867 12.4293 4.64267 10.808 4.216C10.424 4.77066 10.2107 5.47466 10.168 6.328C10.168 7.13867 10.2107 7.94933 10.296 8.76C10.296 9.10133 10.296 9.42133 10.296 9.72C10.3387 10.0187 10.36 10.3173 10.36 10.616C10.36 11.128 10.3387 11.6613 10.296 12.216C10.296 12.7707 10.2747 13.3467 10.232 13.944C10.1467 15.6507 10.04 17.4427 9.912 19.32C9.784 21.1973 9.72 23.0107 9.72 24.76C9.72 27.6187 9.93333 30.2853 10.36 32.76C10.8293 35.192 11.7253 36.9627 13.048 38.072C13.9867 38.84 15.224 39.4587 16.76 39.928C18.296 40.3547 19.9173 40.5467 21.624 40.504C23.3733 40.4187 24.9733 40.0133 26.424 39.288C28.088 38.392 29.3467 37.112 30.2 35.448C31.0533 33.7413 31.6293 31.7787 31.928 29.56C32.2267 27.2987 32.376 24.9307 32.376 22.456C32.376 21.0907 32.3547 19.704 32.312 18.296C32.2693 16.888 32.2053 15.4587 32.12 14.008C32.0773 12.6427 32.0347 11.2773 31.992 9.912C31.9493 8.54667 31.9493 7.26667 31.992 6.072C31.5653 5.56 31.0533 5.13333 30.456 4.792C29.8587 4.45067 29.2827 4.06667 28.728 3.64C28.216 3.21333 27.8533 2.65867 27.64 1.976C28.408 1.464 29.4107 1.12266 30.648 0.952C31.8853 0.738664 33.1867 0.674664 34.552 0.759998C35.9173 0.845331 37.176 1.05866 38.328 1.4C39.5227 1.74133 40.4187 2.21067 41.016 2.808Z" fill="black"/>
</svg>
