<?xml version="1.0" encoding="UTF-8"?>
<svg id="Layer_1" data-name="Layer 1" xmlns="http://www.w3.org/2000/svg" viewBox="0 0 385.32 56.34">
  <path d="m40.82,10.58c-.38.6-.94,1.05-1.66,1.34-.68.3-1.41.58-2.18.83-.73.26-1.37.62-1.92,1.09v4.1c0,1.28-.02,2.56-.06,3.84-.04,1.75-.09,3.5-.13,5.25v5.44c0,.38.02.79.06,1.22.04.38.09.81.13,1.28.09.64.15,1.32.19,2.05.09.68.09,1.37,0,2.05-.09.81-.3,1.58-.64,2.3-.34.73-.68,1.45-1.02,2.18-.43.85-.9,1.79-1.41,2.82-.47.98-.94,1.71-1.41,2.18-.55.6-1.43,1.13-2.62,1.6-1.15.47-2.37.83-3.65,1.09-1.28.26-2.37.38-3.26.38-4.91,0-8.81-1.37-11.71-4.1-2.9-2.77-4.52-6.61-4.86-11.52-.17-2.26-.23-4.59-.19-6.98.04-2.43.09-4.86.13-7.3.09-1.62.15-3.24.19-4.86.04-1.66.06-3.29.06-4.86-.55,0-1.32-.04-2.3-.13-.98-.13-1.79-.34-2.43-.64-.17-.43-.15-.87.06-1.34.21-.47.53-.85.96-1.15.68.13,1.45.19,2.3.19h2.82c.51-.04,1.02-.06,1.54-.06h1.6c1.49.04,2.79.26,3.9.64,1.15.34,1.77,1.11,1.86,2.3-1.41.55-2.92.62-4.54.19-.38.55-.6,1.26-.64,2.11,0,.81.04,1.62.13,2.43v.96c.04.3.06.6.06.9,0,.51-.02,1.05-.06,1.6,0,.55-.02,1.13-.06,1.73-.09,1.71-.19,3.5-.32,5.38-.13,1.88-.19,3.69-.19,5.44,0,2.86.21,5.53.64,8,.47,2.43,1.37,4.2,2.69,5.31.94.77,2.18,1.39,3.71,1.86,1.54.43,3.16.62,4.86.58,1.75-.09,3.35-.49,4.8-1.22,1.66-.9,2.92-2.18,3.78-3.84.85-1.71,1.43-3.67,1.73-5.89.3-2.26.45-4.63.45-7.1,0-1.37-.02-2.75-.06-4.16-.04-1.41-.11-2.84-.19-4.29-.04-1.37-.09-2.73-.13-4.1-.04-1.37-.04-2.65,0-3.84-.43-.51-.94-.94-1.54-1.28-.6-.34-1.17-.73-1.73-1.15-.51-.43-.87-.98-1.09-1.66.77-.51,1.77-.85,3.01-1.02,1.24-.21,2.54-.28,3.9-.19,1.37.09,2.62.3,3.78.64,1.19.34,2.09.81,2.69,1.41Zm47.95,38.46c-.43.55-1.11.98-2.05,1.28-.9.3-1.88.45-2.94.45-1.07.04-2.07-.04-3.01-.26-.9-.21-1.56-.53-1.98-.96-.43-.38-.79-1.07-1.09-2.05s-.68-1.86-1.15-2.62c-1.58-2.52-3.31-5.1-5.18-7.74-1.88-2.65-3.63-5.14-5.25-7.49-.81.21-1.45.6-1.92,1.15-.43.55-.87,1.11-1.34,1.66-.47.55-1.13.92-1.98,1.09.13,2.09.17,4.05.13,5.89,0,1.79-.04,3.73-.13,5.82v.77c.81.38,1.54.83,2.18,1.34.68.51,1.54.83,2.56.96-.38.9-.9,1.41-1.54,1.54-.6.13-1.47.17-2.62.13h-.83c-.68-.04-1.34-.02-1.98.06-.64.04-1.26.11-1.86.19-.94.13-1.83.21-2.69.26-.85,0-1.66-.17-2.43-.51-.26-.38-.34-.68-.26-.9.09-.21.19-.43.32-.64.13-.13.23-.28.32-.45.13-.17.17-.41.13-.7.98-.04,1.86-.13,2.62-.26.81-.17,1.43-.68,1.86-1.54-.17-1.83-.26-3.71-.26-5.63.04-1.92.09-3.86.13-5.82.04-1.92.06-3.84.06-5.76.04-1.92-.02-3.82-.19-5.7,0-.17-.02-.32-.06-.45v-2.11c0-.6.02-1.17.06-1.73.04-1.19.06-2.35.06-3.46s-.19-2.09-.58-2.94c-.38-.21-.77-.3-1.15-.26-.34.04-.68.13-1.02.26-.34.09-.66.15-.96.19-.3,0-.6-.13-.9-.38-.3-.55-.38-.96-.26-1.22.13-.3.3-.53.51-.7.17-.13.3-.28.38-.45.13-.17.19-.38.19-.64.81.09,1.62.13,2.43.13.85-.04,1.71-.06,2.56-.06.38-.04.77-.06,1.15-.06h1.15c1.37,0,2.6.13,3.71.38,1.11.21,2.01.75,2.69,1.6-.43.47-1.02.77-1.79.9-.77.09-1.6.13-2.5.13-.43,1.75-.7,3.43-.83,5.06-.13,1.58-.21,3.22-.26,4.93v3.71c0,1.24-.04,2.56-.13,3.97,1.41-1.19,2.77-2.43,4.1-3.71,1.32-1.32,2.62-2.65,3.9-3.97,1.41-1.49,2.77-3.01,4.1-4.54,1.37-1.58,2.67-3.18,3.9-4.8-.51-.26-1.17-.41-1.98-.45-.77-.04-1.3-.3-1.6-.77.13-.3.23-.6.32-.9.13-.34.21-.7.26-1.09.68.04,1.37.04,2.05,0,.73-.04,1.45-.09,2.18-.13.64-.04,1.28-.06,1.92-.06.64-.04,1.26-.06,1.86-.06,1.15,0,2.2.13,3.14.38.98.26,1.75.79,2.3,1.6-.68.38-1.54.62-2.56.7-.98.04-1.77.3-2.37.77-1.41,1.62-2.9,3.18-4.48,4.67-1.54,1.49-3.05,3.05-4.54,4.67-1.32,1.37-2.56,2.86-3.71,4.48,1.92,3.37,3.97,6.57,6.14,9.6,2.18,3.03,4.18,6.27,6.02,9.73.77.38,1.64.68,2.62.9.98.17,1.88.43,2.69.77.81.34,1.37.96,1.66,1.86Zm26.08-38.4c-.21.64-.73,1-1.54,1.09-.77.09-1.58.11-2.43.06h-1.54c-.17.13-.13.45.13.96.09.17.15.36.19.58.08.17.13.34.13.51-.17.17-.3.38-.38.64-.09.21-.17.49-.26.83-.04,1.07-.06,2.13-.06,3.2s-.02,2.09-.06,3.2c-.04,4.1-.09,8.23-.13,12.42v12.48c.98.04,2.05.28,3.2.7s1.98,1.09,2.5,1.98c-1.07.64-2.3.98-3.71,1.02-1.37.04-2.79.02-4.29-.06-.9-.04-1.79-.06-2.69-.06-.85-.04-1.69,0-2.5.13-.26.04-.45.15-.58.32-.13.13-.26.28-.38.45-.13.26-.3.47-.51.64-.21.21-.55.26-1.02.13-.43-.6-.6-1.19-.51-1.79.13-.6.36-1.15.7-1.66.38-.55.72-1,1.02-1.34h2.94c.51,0,.96-.09,1.34-.26-.04-3.84-.06-7.91-.06-12.22s-.04-8.64-.13-12.86c-.04-3.33-.17-6.53-.38-9.6-.3-.09-.62-.13-.96-.13-.34-.04-.7-.06-1.09-.06-.6,0-1.17-.02-1.73-.06-.56-.04-1.05-.23-1.47-.58-.09-.34-.09-.6,0-.77.13-.17.26-.34.38-.51.13-.13.23-.26.32-.38.08-.17.13-.36.13-.58,1.32,0,2.73-.06,4.22-.19,1.54-.13,3.03-.19,4.48-.19s2.77.13,3.97.38c1.19.26,2.11.79,2.75,1.6Zm50.73.58c-1.45.09-2.69.41-3.71.96-.98.51-1.86,1.19-2.62,2.05-.94,1.02-1.77,2.22-2.5,3.58-.72,1.32-1.45,2.65-2.18,3.97-.34.68-.77,1.37-1.28,2.05-.51.73-1.04,1.37-1.6,1.92-.55.55-1.04,1.17-1.47,1.86-.43.73-.92,1.45-1.47,2.18-.55.68-1.07,1.22-1.54,1.6.17.98.26,2.11.26,3.39s-.02,2.52-.06,3.84v4.22c0,1.37.11,2.56.32,3.58.17.17.36.23.58.19s.36-.17.45-.38c.38.43.85.77,1.41,1.02.55.21,1.07.45,1.54.7.51.3.85.7,1.02,1.22.21.47-.02.98-.7,1.54-1.02-.13-2.07-.19-3.14-.19h-3.14c-1.28.04-2.58.06-3.9.06-1.28-.04-2.6-.17-3.97-.38-.04-1.11.23-1.9.83-2.37s1.26-.87,1.98-1.22c.38-.21.77-.41,1.15-.58.38-.21.7-.49.96-.83v-1.47c.04-.68.06-1.45.06-2.3.04-1.11.06-2.28.06-3.52.04-1.28.04-2.47,0-3.58,0-1.15-.04-2.05-.13-2.69-.13-.85-.51-1.71-1.15-2.56-.64-.85-1.28-1.69-1.92-2.5-.55-.77-1.11-1.56-1.66-2.37-.55-.85-1.11-1.69-1.66-2.5-.77-1.19-1.54-2.37-2.3-3.52-.73-1.19-1.45-2.35-2.18-3.46-.08-.34-.3-.55-.64-.64-.34-.09-.62-.21-.83-.38,0-.34-.02-.66-.06-.96-.04-.34-.15-.6-.32-.77-.26-.04-.53-.06-.83-.06-.26-.04-.53-.06-.83-.06h-1.09c-.34-.04-.72-.11-1.15-.19-.09-.09-.15-.19-.19-.32-.04-.17-.17-.28-.38-.32-.13-.6-.11-1.02.06-1.28.17-.26.38-.49.64-.7.13-.13.21-.21.26-.26.85.13,1.79.17,2.82.13,1.02-.04,2.05-.11,3.07-.19.51-.04,1.02-.09,1.54-.13s1-.06,1.47-.06c1.32-.04,2.45.11,3.39.45.98.34,1.62,1.02,1.92,2.05-.6.43-1.36.7-2.3.83-.9.09-1.83.13-2.82.13.85,1.58,1.83,3.2,2.94,4.86,1.15,1.62,2.35,3.24,3.58,4.86.72.9,1.43,1.81,2.11,2.75.68.9,1.34,1.77,1.98,2.62.64-.9,1.26-1.79,1.86-2.69l1.92-2.69c1.11-1.62,2.22-3.22,3.33-4.8,1.11-1.62,2.18-3.26,3.2-4.93-.34-.04-.79-.04-1.34,0-.56.04-1.15.09-1.79.13-.34.04-.68.09-1.02.13h-.96c-.64-.34-.9-.92-.77-1.73.17-.85.53-1.43,1.09-1.73.85.09,1.73.11,2.62.06.94-.04,1.88-.09,2.82-.13.56-.04,1.11-.09,1.66-.13.56-.04,1.09-.06,1.6-.06,1.24,0,2.32.19,3.26.58.94.34,1.56,1.05,1.86,2.11Zm47.18,21.25c-.08,1.58-.4,3.01-.96,4.29-.51,1.28-1.09,2.54-1.73,3.78-.6,1.19-1.09,2.52-1.47,3.97-.43-.09-.9.17-1.41.77-.47.6-.9,1.22-1.28,1.86-1.79.94-3.69,1.92-5.7,2.94-2.01,1.02-4.2,1.54-6.59,1.54-2.22,0-4.27-.47-6.14-1.41-1.83-.98-3.63-1.9-5.38-2.75,0-.6-.24-.98-.7-1.15-.43-.17-.79-.41-1.09-.7-1.66-1.88-3.05-4.07-4.16-6.59-1.11-2.56-1.75-5.44-1.92-8.64-.13-2.99.19-5.87.96-8.64.68-2.47,1.68-4.69,3.01-6.66,1.37-1.96,3.03-3.39,4.99-4.29.68-.73,1.47-1.39,2.37-1.98.94-.64,2.07-.79,3.39-.45l.26-.45c1.15-.26,2.54-.36,4.16-.32,1.62,0,3.26.17,4.93.51,1.66.3,3.16.81,4.48,1.54,1.36.68,2.32,1.6,2.88,2.75.26.04.47.04.64,0,.21-.04.4-.06.58-.06.17-.04.34-.06.51-.06.17-.04.38,0,.64.13-.04.51-.06,1-.06,1.47.04.43.13.81.26,1.15.77.43,1.34,1.05,1.73,1.86.38.77.7,1.6.96,2.5.26.85.53,1.66.83,2.43.09.17.17.34.26.51.08.17.17.34.26.51.04.51.08,1.02.13,1.54.04.47.09.96.13,1.47.09,1.15.17,2.3.26,3.46.09,1.15.09,2.22,0,3.2Zm-6.02-10.69c-.04-.21-.09-.41-.13-.58s-.09-.34-.13-.51c-.13-.68-.43-1.54-.9-2.56-.43-1.02-.9-2.01-1.41-2.94-.51-.98-.96-1.66-1.34-2.05-.98-1.11-2.24-1.86-3.78-2.24-1.49-.38-3.09-.51-4.8-.38-1.71.09-3.35.41-4.93.96-1.58.51-2.92,1.15-4.03,1.92-.98,1.07-1.84,2.33-2.56,3.78-.68,1.41-1.24,2.92-1.66,4.54-.3,1.15-.53,2.35-.7,3.58-.17,1.24-.26,2.47-.26,3.71-.04,2.73.28,5.42.96,8.06.72,2.6,1.81,4.84,3.26,6.72,1.15,1.49,2.54,2.67,4.16,3.52,1.66.85,3.54,1.24,5.63,1.15,2.52-.09,4.69-.87,6.53-2.37,1.83-1.49,3.29-3.41,4.35-5.76,1.24-2.6,2.01-5.53,2.3-8.77.3-3.29.11-6.55-.58-9.79Z"/>
  <ellipse cx="238.8" cy="23.27" rx="4" ry="8"/>
  <path d="m322.1,36.56c-1.32,0-2.6-.02-3.84-.06-1.24-.04-2.45-.09-3.65-.13-1.96-.04-3.93-.09-5.89-.13-1.92-.04-3.97,0-6.14.13-.13.85-.15,1.77-.06,2.75.08.94.21,1.88.38,2.82.08.94.17,1.88.26,2.82.13.94.15,1.86.06,2.75-.08,1.07-.38,2.28-.9,3.65-.47,1.37-1.11,2.54-1.92,3.52-.81,1.02-1.79,1.58-2.94,1.66-.38,0-.73-.06-1.02-.19-.26-.13-.51-.28-.77-.45-.13-.09-.28-.19-.45-.32-.13-.09-.28-.15-.45-.19-1.49-.47-2.94-.94-4.35-1.41-1.36-.43-2.6-1.3-3.71-2.62-.68-.85-1.22-1.73-1.6-2.62-.34-.9-.75-1.86-1.22-2.88.6.04,1.54.38,2.82,1.02s2.6,1.19,3.97,1.66c.72.26,1.43.45,2.11.58.68.13,1.28.13,1.79,0,.68-.17,1.24-.51,1.66-1.02.43-.55.75-1.24.96-2.05.38-1.37.55-2.92.51-4.67-.04-1.75-.17-3.29-.38-4.61-1.71.3-3.31.47-4.8.51-1.45,0-2.79.11-4.03.32-1.07.17-2.09.45-3.07.83-.94.34-1.83.92-2.69,1.73-1.54-.04-2.82-.34-3.84-.9-1.02-.6-1.9-1.34-2.62-2.24-.72-.9-1.45-1.79-2.18-2.69.64-.38,1.26-.49,1.86-.32.64.17,1.26.38,1.86.64.3.13.51.21.64.26,1.71-.3,3.63-.58,5.76-.83,2.18-.26,4.33-.47,6.46-.64,2.18-.21,4.12-.38,5.82-.51-.17-.64-.45-1.19-.83-1.66-.38-.47-.81-.87-1.28-1.22-.73-.6-1.49-1.13-2.3-1.6-.77-.47-1.36-1.17-1.79-2.11,1.36.17,2.64.43,3.84.77,1.2.34,2.33.75,3.39,1.22,1.28-.47,2.28-1.22,3.01-2.24s1.43-2.03,2.11-3.01c-1.32-.38-2.64-.47-3.97-.26-1.32.17-2.67.41-4.03.7-.6.13-1.2.26-1.79.38-.55.09-1.13.17-1.73.26-.43.04-.7.26-.83.64-.13.34-.3.64-.51.9-1.24.26-2.37.21-3.39-.13-.98-.34-1.86-.87-2.62-1.6-.73-.77-1.41-1.49-2.05-2.18.43-.21.85-.3,1.28-.26.47.04.94.11,1.41.19.21,0,.4.02.58.06.21.04.43.06.64.06.34,0,.66-.04.96-.13s.58-.28.83-.58c-1.07-.3-2.07-.64-3.01-1.02-.94-.43-1.79-.92-2.56-1.47-.34-1.11-.77-2.13-1.28-3.07-.47-.98-1.07-1.86-1.79-2.62,1.45.26,2.88.6,4.29,1.02,1.41.43,2.6,1.07,3.58,1.92.73.55,1.28,1.26,1.66,2.11.43.81.62,1.77.58,2.88,1.41-.34,3.07-.58,4.99-.7,1.96-.17,3.9-.36,5.82-.58,1.96-.26,3.63-.66,4.99-1.22,1.92.17,3.63.62,5.12,1.34,1.49.68,2.9,1.45,4.22,2.3-.13,1.02-.62,1.71-1.47,2.05-.85.34-1.71.75-2.56,1.22-.68.38-1.56,1.02-2.62,1.92-1.02.9-1.96,1.58-2.82,2.05-.17.09-.34.17-.51.26-.17.09-.34.17-.51.26-.6.26-1.13.58-1.6.96-.47.34-.6.94-.38,1.79,1.07.04,2.24.06,3.52.06s2.58-.13,3.78-.38,2.11-.66,2.75-1.22c1.24.26,2.58.6,4.03,1.02,1.45.38,2.73.96,3.84,1.73.6.38,1.11.83,1.54,1.34.47.47.83,1.02,1.09,1.66Zm-12.48-32.19c-1.49.81-3.12,1.51-4.86,2.11s-3.48,1.22-5.18,1.86c-1.71.6-3.29,1.34-4.74,2.24.9.6,1.71,1.24,2.43,1.92.77.64,1.34,1.45,1.73,2.43.43.94.56,2.18.38,3.71-.38.26-.75.38-1.09.38-.34-.04-.68-.09-1.02-.13-.21-.04-.43-.09-.64-.13-.17-.04-.36-.04-.58,0-.68-.98-1.36-1.98-2.05-3.01-.68-1.07-1.02-2.45-1.02-4.16-1.88.81-3.73,1.15-5.57,1.02-1.79-.17-3.56-.64-5.31-1.41.3-.6.7-1.02,1.22-1.28.17-.04.38.04.64.26.21.17.38.26.51.26.04-.17-.02-.3-.19-.38-.17-.09-.26-.13-.26-.13.17-.34.49-.49.96-.45s.77.23.9.58c.43-.34.85-.53,1.28-.58.47-.04.9-.09,1.28-.13,0-.13-.11-.19-.32-.19-.21-.04-.32-.06-.32-.06.77-.21,1.45-.43,2.05-.64.6-.26,1.11-.55,1.54-.9.17.17.36.21.58.13.21-.09.4-.06.58.06.17-.17.24-.36.19-.58v-.38c.43,0,1.04-.23,1.86-.7.81-.47,1.71-1.02,2.69-1.66,1.02-.68,1.98-1.26,2.88-1.73-.34-.47-.79-.92-1.34-1.34-.51-.43-.98-.83-1.41-1.22,1.36-.17,2.84-.19,4.42-.06,1.62.13,3.09.49,4.42,1.09.77.34,1.45.77,2.05,1.28.6.51,1.05,1.15,1.34,1.92Zm-35.46,23.49c-1.32.51-2.58.53-3.78.06-1.15-.47-2.24-1.19-3.26-2.18-.9-.9-1.75-1.88-2.56-2.94-.77-1.07-1.52-2.09-2.24-3.07-.68-.98-1.34-1.75-1.98-2.3,1.96.13,4.05.55,6.27,1.28,2.22.68,4.03,1.66,5.44,2.94.9.81,1.56,1.73,1.98,2.75s.47,2.18.13,3.46Zm.83,12.99c.3.64.51,1.54.64,2.69.17,1.15.21,2.41.13,3.78-.04,1.32-.21,2.6-.51,3.84-.26,1.24-.68,2.24-1.28,3.01-1.62-.34-3.01-.94-4.16-1.79-1.15-.81-2.18-1.77-3.07-2.88-.9-1.15-1.77-2.3-2.62-3.46,1.02-.17,2.11-.09,3.26.26,1.15.3,2.2.64,3.14,1.02.3.09.51.15.64.19.68-.98,1.34-2.15,1.98-3.52.68-1.41,1.3-2.45,1.86-3.14Zm38.4-29.38c-.21,1.28-.83,2.41-1.86,3.39-1.02.94-2.24,1.69-3.65,2.24-1.37.51-2.75.81-4.16.9.17-1.07.6-2.24,1.28-3.52.68-1.28,1.3-2.45,1.86-3.52,0-.73-.19-1.26-.58-1.6-.34-.38-.58-.87-.7-1.47,1.24-.04,2.43.26,3.58.9,1.15.64,2.22,1.32,3.2,2.05.17.09.34.19.51.32.17.13.34.23.51.32Zm-34.75-1.41c-.04.6-.28.9-.7.9s-.79.13-1.09.38c-1.71-.98-3.16-2.22-4.35-3.71-1.15-1.49-1.96-3.39-2.43-5.7,1.32.51,2.6,1.07,3.84,1.66,1.28.55,2.35,1.32,3.2,2.3.9.98,1.41,2.37,1.54,4.16Zm106.62,9.92c.09.26.06.51-.06.77-.13.21-.26.36-.38.45-1.49.6-2.82.87-3.97.83-1.15-.09-2.33-.23-3.52-.45-.9-.17-1.86-.32-2.88-.45-1.02-.13-2.2-.11-3.52.06-.04.3-.11.62-.19.96-.04.34-.08.66-.13.96-.13.64-.24,1.24-.32,1.79-.04.55,0,1.02.13,1.41-.13.17-.26.21-.38.13s-.21-.04-.26.13c.17.17.26.36.26.58.04.17.06.34.06.51v.38c.04.13.09.26.13.38-.26.09-.4.28-.45.58,0,.3-.13.58-.38.83,0,.3.04.47.13.51.08.04.19.06.32.06.17,0,.26.04.26.13-.26,1.02-.36,2.07-.32,3.14s.43,1.94,1.15,2.62c-1.11,0-2.18.04-3.2.13-.98.09-1.94.17-2.88.26-2.01.13-3.9.21-5.7.26-1.79.04-3.76-.21-5.89-.77-.26-.51-.58-.94-.96-1.28-.38-.38-.68-.85-.9-1.41.51-.43.75-1.19.7-2.3,0-1.15-.06-2.39-.19-3.71-.08-.85-.17-1.71-.26-2.56-.04-.85-.02-1.64.06-2.37-.6-.17-1.24-.21-1.92-.13-.68.09-1.36.21-2.05.38-.6.13-1.19.23-1.79.32-.55.04-1.07.02-1.54-.06-.3.04-.45.23-.45.58,0,.3-.13.49-.38.58.09.85.11,1.77.06,2.75,0,.98-.04,1.98-.13,3.01-.04,1.32-.08,2.62-.13,3.9,0,1.24.13,2.28.38,3.14-.26,1.71-.36,3.2-.32,4.48.04,1.28.24,2.79.58,4.54,3.41-.21,7.06-.45,10.94-.7,3.93-.3,7.72-.47,11.39-.51,1.62-.85,3.28-1.17,4.99-.96,1.71.17,3.37.62,4.99,1.34,1.62.68,3.12,1.41,4.48,2.18.51.34.66.79.45,1.34-.17.13-.45.17-.83.13-.08-.04-.19-.06-.32-.06h-.38c-.21.09-.36.23-.45.45-.04.21-.17.38-.38.51-.81.38-1.62.53-2.43.45-.77-.09-1.54-.21-2.3-.38-.34-.04-.66-.09-.96-.13-.3-.09-.62-.15-.96-.19-2.22-.26-4.71-.41-7.49-.45-2.73-.09-5.48-.04-8.26.13-2.73.13-5.23.43-7.49.9-.85.17-1.66.45-2.43.83-.77.43-1.56.66-2.37.7-1.2.04-2.33-.28-3.39-.96-1.07-.73-1.98-1.62-2.75-2.69-.77-1.07-1.36-2.07-1.79-3.01,0,0,.3.02.9.06.64,0,1.15.17,1.54.51.38-.34.58-.79.58-1.34s-.04-1.11-.13-1.66c-.08-.51-.15-.98-.19-1.41,0-.47.15-.85.45-1.15,0-.13-.13-.23-.38-.32-.26-.09-.36-.21-.32-.38,0-.21.04-.38.13-.51.08-.17.17-.32.26-.45.26-.3.34-.53.26-.7-.3.17-.47.17-.51,0,0-.17.02-.38.06-.64s.06-.49.06-.7c0-.26-.04-.49-.13-.7.08-.17.21-.26.38-.26h.26c-.34-.3-.51-.66-.51-1.09s.04-.85.13-1.28c.08-.47.11-.77.06-.9-.04-.17-.21-.43-.51-.77-.26-.34-.4-.62-.45-.83,0-.13.08-.21.26-.26.21-.04.34-.11.38-.19.04-.17,0-.51-.13-1.02-.08-.51-.19-1.02-.32-1.54-.13-.55-.23-.94-.32-1.15v-.32c.04-.17.04-.38,0-.64,0-.26-.17-.55-.51-.9-.51,0-1.22.15-2.11.45-.9.26-1.81.49-2.75.7-.81.17-1.58.21-2.3.13-.68-.13-1.15-.53-1.41-1.22-1.32-.34-2.33-1.02-3.01-2.05-.68-1.02-1.3-2.13-1.86-3.33.98-.21,2.01-.17,3.07.13,1.07.26,2.13.68,3.2,1.28.85-.3,1.58-.49,2.18-.58.64-.13,1.3-.21,1.98-.26.68-.09,1.49-.19,2.43-.32.17-1.24.04-2.33-.38-3.26-.38-.94-.85-1.86-1.41-2.75-.34-.68-.7-1.37-1.09-2.05-.34-.68-.6-1.45-.77-2.3,2.01.09,3.95.75,5.82,1.98,1.92,1.24,3.37,2.94,4.35,5.12-.17.26-.36.64-.58,1.15-.17.51-.11.98.19,1.41,1.07-.04,2.39-.13,3.97-.26,1.62-.17,3.09-.34,4.42-.51.09-.81.06-1.58-.06-2.3s-.28-1.43-.45-2.11c-.13-.47-.26-.92-.38-1.34-.08-.47-.15-.94-.19-1.41-.85-.98-1.66-2.01-2.43-3.07-.73-1.11-1.26-2.43-1.6-3.97,2.26.13,4.35.81,6.27,2.05,1.92,1.24,3.52,2.67,4.8,4.29-.21.47-.36,1.15-.45,2.05-.08.9-.13,1.83-.13,2.82s.04,1.81.13,2.62c1.02,0,2.35-.04,3.97-.13,1.62-.09,3.11-.15,4.48-.19.43-2.05.4-4.14-.06-6.27-.47-2.13-.96-4.12-1.47-5.95-.21-.68-.4-1.32-.58-1.92-.17-.64-.32-1.24-.45-1.79,2.18.55,4.35,1.64,6.53,3.26.6.43,1.28,1.05,2.05,1.86.77.81,1.17,1.47,1.22,1.98.04.47-.02,1-.19,1.6-.13.55-.3,1.15-.51,1.79-.3.81-.55,1.64-.77,2.5s-.23,1.71-.06,2.56c2.9-.47,5.44-.41,7.62.19s4.33,1.6,6.46,3.01Zm-19.65,1.41c-.81.04-1.56.06-2.24.06h-1.86c-.73,0-1.43.02-2.11.06-.68,0-1.41.04-2.18.13-.13,1.19-.21,2.35-.26,3.46-.04,1.11-.19,2.28-.45,3.52v-.64c0-.47-.08-.7-.26-.7v.7c0,.26-.02.53-.06.83-.04.47-.08.96-.13,1.47,0,.47.04.85.13,1.15.13-.09.19-.41.19-.96s.06-.85.19-.9c.09.6.09,1.05,0,1.34-.04.26-.08.47-.13.64-.08.26-.15.47-.19.64-.04.13-.04.32,0,.58v.51c.73.04,1.41.02,2.05-.06.68-.13,1.32-.26,1.92-.38h.13c.85-.21,1.66-.36,2.43-.45.81-.09,1.64.04,2.5.38,0-.85.02-1.66.06-2.43.04-.77.08-1.56.13-2.37.09-1.02.15-2.07.19-3.14.04-1.11.02-2.26-.06-3.46Z"/>
</svg>