<svg width="244" height="117" viewBox="0 0 244 117" fill="none" xmlns="http://www.w3.org/2000/svg">
<path d="M39.75 16.625C38.0833 16.7083 36.75 16.3333 35.75 15.5C34.75 14.5833 34.25 13.2917 34.25 11.625C34.25 10.125 34.75 9.04167 35.75 8.375C36.8333 7.625 38.0417 7.125 39.375 6.875C40.7917 6.625 42.0417 6.5 43.125 6.5C52.0417 6 60.875 5.375 69.625 4.625C78.375 3.875 87.125 2.83333 95.875 1.5C96.7917 1.33333 97.75 1.16667 98.75 1C99.75 0.75 100.667 0.625 101.5 0.625C103.25 0.625 104.667 1.04167 105.75 1.875C106.833 2.625 107.375 3.95833 107.375 5.875C107.375 7.95833 106.5 9.33333 104.75 10C103.083 10.6667 101.417 11.0833 99.75 11.25C95.5 11.75 91.2083 12.25 86.875 12.75C82.625 13.25 78.375 13.7083 74.125 14.125C68.4583 14.625 62.75 15.0833 57 15.5C51.25 15.8333 45.5 16.2083 39.75 16.625ZM24.625 20.125C23.7917 20.125 22.5417 19.75 20.875 19C19.2917 18.1667 17.7083 17.2917 16.125 16.375C14.625 15.375 13.5417 14.7083 12.875 14.375C11.7083 13.7083 10.4167 12.9167 9 12C7.66667 11 7 9.70833 7 8.125C7 4.29167 8.95833 2.375 12.875 2.375C14.0417 2.375 15.5833 2.75 17.5 3.5C19.4167 4.25 21.375 5.20833 23.375 6.375C25.4583 7.54167 27.1667 8.83333 28.5 10.25C29.9167 11.5833 30.625 12.875 30.625 14.125C30.625 18.125 28.625 20.125 24.625 20.125ZM93.5 40.75C92.1667 40.75 91.0417 40.4583 90.125 39.875C89.2083 39.2083 88.75 38.125 88.75 36.625C88.75 36.375 89 35.6667 89.5 34.5C90 33.25 90.5833 31.875 91.25 30.375C92 28.7917 92.6667 27.3333 93.25 26C93.9167 24.5833 94.375 23.5833 94.625 23C95.2083 21.5833 96 20.125 97 18.625C98 17.0417 99.375 16.25 101.125 16.25C104.708 16.25 106.5 18.0417 106.5 21.625C106.5 22.375 106.167 23.5 105.5 25C104.833 26.5 104.042 28.0833 103.125 29.75C102.208 31.4167 101.292 33 100.375 34.5C99.5417 35.9167 98.9167 36.9583 98.5 37.625C97.9167 38.5417 97.2083 39.2917 96.375 39.875C95.625 40.4583 94.6667 40.75 93.5 40.75ZM72.375 38.75C70.875 38.75 69.5833 37.9167 68.5 36.25C67.4167 34.5833 66.5 32.7917 65.75 30.875C65.0833 28.875 64.5417 27.375 64.125 26.375C63.875 25.7083 63.5833 25.0417 63.25 24.375C63 23.7083 62.875 23.0417 62.875 22.375C62.875 19.5417 64.4167 18.125 67.5 18.125C68.5833 18.125 69.5 18.4583 70.25 19.125C71 19.7083 71.625 20.4583 72.125 21.375C72.5417 22.125 73.1667 23.3333 74 25C74.9167 26.5833 75.7083 28.2083 76.375 29.875C77.125 31.4583 77.5 32.7083 77.5 33.625C77.5 37.0417 75.7917 38.75 72.375 38.75ZM46.75 40.875C45.5833 40.875 44.5417 40.3333 43.625 39.25C42.7917 38.0833 42.0417 36.7917 41.375 35.375C40.7917 33.9583 40.2917 32.8333 39.875 32C39.7083 31.5 39.375 30.75 38.875 29.75C38.375 28.6667 37.9167 27.5833 37.5 26.5C37.0833 25.4167 36.875 24.625 36.875 24.125C36.875 21.2917 38.4167 19.875 41.5 19.875C42.6667 19.875 43.625 20.2083 44.375 20.875C45.125 21.5417 45.75 22.3333 46.25 23.25C46.6667 23.9167 47.2917 25.125 48.125 26.875C49.0417 28.625 49.875 30.4167 50.625 32.25C51.4583 34 51.875 35.25 51.875 36C51.875 39.25 50.1667 40.875 46.75 40.875ZM18.75 52.25C17.9167 52.25 16.7083 51.9583 15.125 51.375C13.625 50.7083 12.1667 50 10.75 49.25C9.33333 48.5 8.25 47.9583 7.5 47.625C6.16667 46.9583 4.70833 46.125 3.125 45.125C1.625 44.0417 0.875 42.625 0.875 40.875C0.875 37.0417 2.79167 35.125 6.625 35.125C7.45833 35.125 8.75 35.4583 10.5 36.125C12.25 36.7917 14 37.5 15.75 38.25C17.5 39 18.75 39.5833 19.5 40C20.75 40.5833 21.9167 41.375 23 42.375C24.0833 43.375 24.625 44.6667 24.625 46.25C24.625 50.25 22.6667 52.25 18.75 52.25ZM55.375 116.5C53.4583 116.5 51.875 116.042 50.625 115.125C49.375 114.292 48.75 112.833 48.75 110.75C48.75 108.583 49.25 107.125 50.25 106.375C51.3333 105.625 52.6667 105.25 54.25 105.25C55.9167 105.167 57.5417 105.125 59.125 105.125C61.0417 105.125 62.7083 104.875 64.125 104.375C65.5417 103.875 66.25 102.458 66.25 100.125V86.25H34.375C32.625 86.25 31.125 85.875 29.875 85.125C28.7083 84.375 28.125 83.0417 28.125 81.125C28.125 79.2083 28.75 77.9167 30 77.25C31.25 76.5 32.7083 76.125 34.375 76.125H66.25C66.25 72.875 66.375 70.3333 66.625 68.5C66.9583 66.6667 67.5833 65.25 68.5 64.25C69.4167 63.25 70.75 62.375 72.5 61.625C74.25 60.7917 76.5833 59.7917 79.5 58.625C79.9167 58.4583 80.8333 58.0833 82.25 57.5C83.75 56.8333 85.1667 56.1667 86.5 55.5C87.9167 54.75 88.625 54.125 88.625 53.625L88.25 53.25H38.875C37.2917 53.25 35.9167 52.9167 34.75 52.25C33.5833 51.5 33 50.2083 33 48.375C33 46.5417 33.5833 45.2917 34.75 44.625C35.9167 43.9583 37.2917 43.625 38.875 43.625H98.25C99.5833 43.625 101 43.75 102.5 44C104.083 44.25 105.417 44.7917 106.5 45.625C107.667 46.375 108.25 47.625 108.25 49.375C108.25 50.375 107.458 51.5417 105.875 52.875C104.375 54.125 102.417 55.4583 100 56.875C97.6667 58.2917 95.2083 59.625 92.625 60.875C90.125 62.125 87.875 63.25 85.875 64.25C83.875 65.1667 82.5 65.7917 81.75 66.125C80.5 66.7083 79.4167 67.5 78.5 68.5C77.6667 69.4167 77.25 70.625 77.25 72.125V76.125H109.625C111.375 76.125 112.833 76.5 114 77.25C115.167 77.9167 115.75 79.2083 115.75 81.125C115.75 83.0417 115.167 84.375 114 85.125C112.833 85.875 111.375 86.25 109.625 86.25H77.25V103.375C77.25 107.625 76.4167 110.875 74.75 113.125C73.1667 115.375 70.0417 116.5 65.375 116.5H55.375ZM7.375 114.5C3.29167 114.5 1.25 112.417 1.25 108.25C1.25 107.583 1.375 106.958 1.625 106.375C1.875 105.792 2.125 105.208 2.375 104.625C4.70833 99.7083 6.79167 94.8333 8.625 90C10.5417 85.0833 12.4167 80.0833 14.25 75C14.75 73.5833 15.5 72.0833 16.5 70.5C17.5 68.8333 18.9167 68 20.75 68C24.5 68 26.375 69.8333 26.375 73.5C26.375 74.25 25.9583 75.9583 25.125 78.625C24.375 81.2917 23.375 84.375 22.125 87.875C20.875 91.375 19.5833 94.875 18.25 98.375C16.9167 101.875 15.6667 104.875 14.5 107.375C13.4167 109.958 12.625 111.583 12.125 112.25C10.875 113.75 9.29167 114.5 7.375 114.5ZM157.125 112.375C153.042 112.375 149.833 111.25 147.5 109C145.25 106.75 144.125 103.583 144.125 99.5V42H132.875C131.042 42 129.417 41.625 128 40.875C126.667 40.0417 126 38.5833 126 36.5C126 34.3333 126.667 32.875 128 32.125C129.333 31.2917 130.958 30.875 132.875 30.875H144.125V9.125C144.125 7.20833 144.542 5.58333 145.375 4.25C146.208 2.83333 147.708 2.125 149.875 2.125C152.042 2.125 153.542 2.79167 154.375 4.125C155.292 5.45833 155.75 7.125 155.75 9.125V30.875H179.875V7C179.875 5.08333 180.25 3.5 181 2.25C181.833 0.916667 183.292 0.25 185.375 0.25C187.458 0.25 188.875 0.916667 189.625 2.25C190.458 3.5 190.875 5.08333 190.875 7V30.875H215.875V8.625C215.875 6.70833 216.25 5.125 217 3.875C217.833 2.625 219.292 2 221.375 2C223.458 2 224.875 2.625 225.625 3.875C226.458 5.125 226.875 6.70833 226.875 8.625V30.875H237.125C239.042 30.875 240.625 31.2917 241.875 32.125C243.208 32.875 243.875 34.3333 243.875 36.5C243.875 38.5833 243.208 40.0417 241.875 40.875C240.625 41.625 239.042 42 237.125 42H226.875V68.25C226.875 72.0833 226.167 75.125 224.75 77.375C223.333 79.625 220.458 80.75 216.125 80.75H192.375C188.375 80.75 185.292 80 183.125 78.5C180.958 76.9167 179.875 73.9583 179.875 69.625V42H155.75V94.875C155.75 98.9583 157.792 101 161.875 101H233.125C235.042 101 236.625 101.417 237.875 102.25C239.125 103.083 239.75 104.583 239.75 106.75C239.75 108.833 239.125 110.292 237.875 111.125C236.625 111.958 235.042 112.375 233.125 112.375H157.125ZM196.125 70.25H210.625C212.292 70.25 213.583 69.7917 214.5 68.875C215.417 67.875 215.875 66.5833 215.875 65V42H190.875V65C190.875 66.5833 191.333 67.875 192.25 68.875C193.25 69.7917 194.542 70.25 196.125 70.25Z" fill="#F0CD97"/>
</svg>
