<svg width="148" height="148" viewBox="0 0 148 148" fill="none" xmlns="http://www.w3.org/2000/svg">
<rect width="148" height="148" rx="16" fill="black" fill-opacity="0.15"/>
<path d="M56.75 32.625C55.0833 32.7083 53.75 32.3333 52.75 31.5C51.75 30.5833 51.25 29.2917 51.25 27.625C51.25 26.125 51.75 25.0417 52.75 24.375C53.8333 23.625 55.0417 23.125 56.375 22.875C57.7917 22.625 59.0417 22.5 60.125 22.5C69.0417 22 77.875 21.375 86.625 20.625C95.375 19.875 104.125 18.8333 112.875 17.5C113.792 17.3333 114.75 17.1667 115.75 17C116.75 16.75 117.667 16.625 118.5 16.625C120.25 16.625 121.667 17.0417 122.75 17.875C123.833 18.625 124.375 19.9583 124.375 21.875C124.375 23.9583 123.5 25.3333 121.75 26C120.083 26.6667 118.417 27.0833 116.75 27.25C112.5 27.75 108.208 28.25 103.875 28.75C99.625 29.25 95.375 29.7083 91.125 30.125C85.4583 30.625 79.75 31.0833 74 31.5C68.25 31.8333 62.5 32.2083 56.75 32.625ZM41.625 36.125C40.7917 36.125 39.5417 35.75 37.875 35C36.2917 34.1667 34.7083 33.2917 33.125 32.375C31.625 31.375 30.5417 30.7083 29.875 30.375C28.7083 29.7083 27.4167 28.9167 26 28C24.6667 27 24 25.7083 24 24.125C24 20.2917 25.9583 18.375 29.875 18.375C31.0417 18.375 32.5833 18.75 34.5 19.5C36.4167 20.25 38.375 21.2083 40.375 22.375C42.4583 23.5417 44.1667 24.8333 45.5 26.25C46.9167 27.5833 47.625 28.875 47.625 30.125C47.625 34.125 45.625 36.125 41.625 36.125ZM110.5 56.75C109.167 56.75 108.042 56.4583 107.125 55.875C106.208 55.2083 105.75 54.125 105.75 52.625C105.75 52.375 106 51.6667 106.5 50.5C107 49.25 107.583 47.875 108.25 46.375C109 44.7917 109.667 43.3333 110.25 42C110.917 40.5833 111.375 39.5833 111.625 39C112.208 37.5833 113 36.125 114 34.625C115 33.0417 116.375 32.25 118.125 32.25C121.708 32.25 123.5 34.0417 123.5 37.625C123.5 38.375 123.167 39.5 122.5 41C121.833 42.5 121.042 44.0833 120.125 45.75C119.208 47.4167 118.292 49 117.375 50.5C116.542 51.9167 115.917 52.9583 115.5 53.625C114.917 54.5417 114.208 55.2917 113.375 55.875C112.625 56.4583 111.667 56.75 110.5 56.75ZM89.375 54.75C87.875 54.75 86.5833 53.9167 85.5 52.25C84.4167 50.5833 83.5 48.7917 82.75 46.875C82.0833 44.875 81.5417 43.375 81.125 42.375C80.875 41.7083 80.5833 41.0417 80.25 40.375C80 39.7083 79.875 39.0417 79.875 38.375C79.875 35.5417 81.4167 34.125 84.5 34.125C85.5833 34.125 86.5 34.4583 87.25 35.125C88 35.7083 88.625 36.4583 89.125 37.375C89.5417 38.125 90.1667 39.3333 91 41C91.9167 42.5833 92.7083 44.2083 93.375 45.875C94.125 47.4583 94.5 48.7083 94.5 49.625C94.5 53.0417 92.7917 54.75 89.375 54.75ZM63.75 56.875C62.5833 56.875 61.5417 56.3333 60.625 55.25C59.7917 54.0833 59.0417 52.7917 58.375 51.375C57.7917 49.9583 57.2917 48.8333 56.875 48C56.7083 47.5 56.375 46.75 55.875 45.75C55.375 44.6667 54.9167 43.5833 54.5 42.5C54.0833 41.4167 53.875 40.625 53.875 40.125C53.875 37.2917 55.4167 35.875 58.5 35.875C59.6667 35.875 60.625 36.2083 61.375 36.875C62.125 37.5417 62.75 38.3333 63.25 39.25C63.6667 39.9167 64.2917 41.125 65.125 42.875C66.0417 44.625 66.875 46.4167 67.625 48.25C68.4583 50 68.875 51.25 68.875 52C68.875 55.25 67.1667 56.875 63.75 56.875ZM35.75 68.25C34.9167 68.25 33.7083 67.9583 32.125 67.375C30.625 66.7083 29.1667 66 27.75 65.25C26.3333 64.5 25.25 63.9583 24.5 63.625C23.1667 62.9583 21.7083 62.125 20.125 61.125C18.625 60.0417 17.875 58.625 17.875 56.875C17.875 53.0417 19.7917 51.125 23.625 51.125C24.4583 51.125 25.75 51.4583 27.5 52.125C29.25 52.7917 31 53.5 32.75 54.25C34.5 55 35.75 55.5833 36.5 56C37.75 56.5833 38.9167 57.375 40 58.375C41.0833 59.375 41.625 60.6667 41.625 62.25C41.625 66.25 39.6667 68.25 35.75 68.25ZM72.375 132.5C70.4583 132.5 68.875 132.042 67.625 131.125C66.375 130.292 65.75 128.833 65.75 126.75C65.75 124.583 66.25 123.125 67.25 122.375C68.3333 121.625 69.6667 121.25 71.25 121.25C72.9167 121.167 74.5417 121.125 76.125 121.125C78.0417 121.125 79.7083 120.875 81.125 120.375C82.5417 119.875 83.25 118.458 83.25 116.125V102.25H51.375C49.625 102.25 48.125 101.875 46.875 101.125C45.7083 100.375 45.125 99.0417 45.125 97.125C45.125 95.2083 45.75 93.9167 47 93.25C48.25 92.5 49.7083 92.125 51.375 92.125H83.25C83.25 88.875 83.375 86.3333 83.625 84.5C83.9583 82.6667 84.5833 81.25 85.5 80.25C86.4167 79.25 87.75 78.375 89.5 77.625C91.25 76.7917 93.5833 75.7917 96.5 74.625C96.9167 74.4583 97.8333 74.0833 99.25 73.5C100.75 72.8333 102.167 72.1667 103.5 71.5C104.917 70.75 105.625 70.125 105.625 69.625L105.25 69.25H55.875C54.2917 69.25 52.9167 68.9167 51.75 68.25C50.5833 67.5 50 66.2083 50 64.375C50 62.5417 50.5833 61.2917 51.75 60.625C52.9167 59.9583 54.2917 59.625 55.875 59.625H115.25C116.583 59.625 118 59.75 119.5 60C121.083 60.25 122.417 60.7917 123.5 61.625C124.667 62.375 125.25 63.625 125.25 65.375C125.25 66.375 124.458 67.5417 122.875 68.875C121.375 70.125 119.417 71.4583 117 72.875C114.667 74.2917 112.208 75.625 109.625 76.875C107.125 78.125 104.875 79.25 102.875 80.25C100.875 81.1667 99.5 81.7917 98.75 82.125C97.5 82.7083 96.4167 83.5 95.5 84.5C94.6667 85.4167 94.25 86.625 94.25 88.125V92.125H126.625C128.375 92.125 129.833 92.5 131 93.25C132.167 93.9167 132.75 95.2083 132.75 97.125C132.75 99.0417 132.167 100.375 131 101.125C129.833 101.875 128.375 102.25 126.625 102.25H94.25V119.375C94.25 123.625 93.4167 126.875 91.75 129.125C90.1667 131.375 87.0417 132.5 82.375 132.5H72.375ZM24.375 130.5C20.2917 130.5 18.25 128.417 18.25 124.25C18.25 123.583 18.375 122.958 18.625 122.375C18.875 121.792 19.125 121.208 19.375 120.625C21.7083 115.708 23.7917 110.833 25.625 106C27.5417 101.083 29.4167 96.0833 31.25 91C31.75 89.5833 32.5 88.0833 33.5 86.5C34.5 84.8333 35.9167 84 37.75 84C41.5 84 43.375 85.8333 43.375 89.5C43.375 90.25 42.9583 91.9583 42.125 94.625C41.375 97.2917 40.375 100.375 39.125 103.875C37.875 107.375 36.5833 110.875 35.25 114.375C33.9167 117.875 32.6667 120.875 31.5 123.375C30.4167 125.958 29.625 127.583 29.125 128.25C27.875 129.75 26.2917 130.5 24.375 130.5Z" fill="#F0CD97"/>
</svg>
